<svg xmlns="http://www.w3.org/2000/svg" viewBox="0 0 520 420" font-family="-apple-system, BlinkMacSystemFont, 'Segoe UI', Roboto, sans-serif" font-size="13">
  <rect width="520" height="420" fill="#fff" stroke="#cdd2da" stroke-width="1"/>
  <!-- panel header -->
  <rect x="0" y="0" width="520" height="36" fill="#f4f6fa" stroke="#cdd2da" stroke-width="1"/>
  <text x="16" y="23" fill="#1f2329" font-weight="600">Daily summary</text>
  <text x="478" y="23" fill="#7a8597" font-size="11">↻</text>

  <!-- proposals section -->
  <text x="16" y="62" fill="#586073" font-weight="600" font-size="12" letter-spacing="0.5">RECENT PROPOSALS · 3</text>
  <rect x="12" y="72" width="496" height="80" fill="#fafbfd" stroke="#e1e5ec" stroke-width="1" rx="4"/>
  <text x="22" y="92" fill="#1f2329" font-weight="600">contact.person</text>
  <text x="22" y="110" fill="#3a4253">Sara Chen — work_email = sara@example.com</text>
  <text x="22" y="128" fill="#7a8597" font-size="11">from ingest/2026-05-31-notes.md · scribe · 87% confidence</text>
  <!-- Accept button -->
  <rect x="320" y="118" width="80" height="26" fill="#2563eb" rx="4"/>
  <text x="360" y="135" fill="#fff" text-anchor="middle" font-weight="500">Accept</text>
  <!-- Reject button -->
  <rect x="408" y="118" width="80" height="26" fill="#fff" stroke="#d1d5db" stroke-width="1" rx="4"/>
  <text x="448" y="135" fill="#3a4253" text-anchor="middle" font-weight="500">Reject</text>

  <!-- second proposal (compressed) -->
  <rect x="12" y="158" width="496" height="48" fill="#fafbfd" stroke="#e1e5ec" stroke-width="1" rx="4"/>
  <text x="22" y="178" fill="#3a4253">Foley Greenhouse — organization (new)</text>
  <text x="22" y="196" fill="#7a8597" font-size="11">scribe · 91% confidence</text>

  <!-- questions section -->
  <text x="16" y="232" fill="#586073" font-weight="600" font-size="12" letter-spacing="0.5">QUESTIONS · 1</text>
  <rect x="12" y="242" width="496" height="48" fill="#fff7ed" stroke="#fbbf24" stroke-width="1" rx="4"/>
  <text x="22" y="262" fill="#1f2329">Is "Sara Chen" the same as the existing contact "Sarah Chen"?</text>
  <text x="22" y="280" fill="#7a8597" font-size="11">scribe · ambiguous-name-resolution</text>

  <!-- drift flags -->
  <text x="16" y="316" fill="#586073" font-weight="600" font-size="12" letter-spacing="0.5">DRIFT FLAGS · 0</text>
  <rect x="12" y="326" width="496" height="32" fill="#fafbfd" stroke="#e1e5ec" stroke-width="1" rx="4"/>
  <text x="22" y="346" fill="#7a8597" font-style="italic">No drift flags today.</text>

  <!-- footer -->
  <text x="16" y="396" fill="#7a8597" font-size="11">audit.daily_summary · 2026-05-31 · authored by ffs-daemon</text>
</svg>
