<svg xmlns="http://www.w3.org/2000/svg" viewBox="0 0 720 420" font-family="-apple-system, BlinkMacSystemFont, 'Segoe UI', Roboto, sans-serif" font-size="13">
  <rect width="720" height="420" fill="#fff" stroke="#cdd2da" stroke-width="1"/>

  <!-- left rail: file explorer -->
  <rect x="0" y="0" width="220" height="420" fill="#f4f6fa" stroke="#cdd2da" stroke-width="1"/>
  <text x="14" y="22" fill="#586073" font-weight="600" font-size="12" letter-spacing="0.5">FILES</text>
  <text x="14" y="48" fill="#1f2329">▸ ingest/</text>
  <text x="14" y="68" fill="#1f2329">▾ contacts/</text>
  <text x="28" y="88" fill="#1f2329">▾ by-name/</text>
  <text x="42" y="108" fill="#1f2329">▸ A/</text>
  <text x="42" y="128" fill="#1f2329">▸ R/</text>
  <text x="42" y="148" fill="#1f2329" font-weight="600">▾ S/</text>
  <rect x="56" y="154" width="148" height="22" fill="#dbeafe" rx="3"/>
  <text x="60" y="170" fill="#1d4ed8" font-weight="600">Sara_Chen.md</text>
  <text x="56" y="190" fill="#3a4253">Sasha_K.md</text>
  <text x="28" y="214" fill="#3a4253">▸ recent/</text>
  <text x="28" y="234" fill="#3a4253">▸ intersection/</text>
  <text x="14" y="262" fill="#3a4253">▸ people/</text>
  <text x="14" y="282" fill="#3a4253">▸ notes/</text>
  <text x="14" y="302" fill="#3a4253">▸ audit/</text>

  <!-- main editor pane: the rendered projection -->
  <rect x="220" y="0" width="500" height="36" fill="#fff" stroke="#cdd2da" stroke-width="1"/>
  <text x="236" y="23" fill="#3a4253">contacts/by-name/S/Sara_Chen.md</text>
  <text x="694" y="23" fill="#7a8597" font-size="11" text-anchor="end">⚙</text>

  <rect x="220" y="36" width="500" height="384" fill="#fff"/>
  <text x="240" y="62" fill="#7a8597">---</text>
  <text x="240" y="82" fill="#1f2329">display_name: Sara Chen</text>
  <text x="240" y="102" fill="#1f2329">work_email: sara@example.com</text>
  <text x="240" y="122" fill="#1f2329">tier: introducible</text>
  <text x="240" y="142" fill="#7a8597">---</text>
  <text x="240" y="174" fill="#1f2329" font-weight="700" font-size="15">## Notes</text>
  <text x="240" y="196" fill="#1f2329">- Met at gardening conference</text>
  <text x="240" y="216" fill="#1f2329">- Passionate about heirlooms</text>
  <text x="240" y="248" fill="#1f2329" font-weight="700" font-size="15">## Organizations</text>
  <text x="240" y="270" fill="#1f2329">- Foley Greenhouse</text>
  <text x="240" y="302" fill="#1f2329" font-weight="700" font-size="15">## History</text>
  <text x="240" y="324" fill="#1f2329">- first met at the 2024 SDF picnic</text>
  <text x="240" y="344" fill="#1f2329">- last sync 2026-05-30: greenhouse build</text>

  <!-- annotation -->
  <rect x="488" y="78" width="208" height="56" fill="#fffbeb" stroke="#fbbf24" stroke-width="1" rx="4"/>
  <text x="498" y="96" fill="#92400e" font-size="11" font-weight="600">PROJECTION</text>
  <text x="498" y="114" fill="#3a4253" font-size="11">Rendered from atoms — edit</text>
  <text x="498" y="128" fill="#3a4253" font-size="11">the file, supersession lands.</text>
</svg>
